<svg id="visual" viewBox="0 0 1920 1080" width="1920" height="1080" xmlns="http://www.w3.org/2000/svg" xmlns:xlink="http://www.w3.org/1999/xlink" version="1.1"><rect x="0" y="0" width="1920" height="1080" fill="#23283e"></rect><defs><linearGradient id="grad1_0" x1="43.8%" y1="100%" x2="100%" y2="0%"><stop offset="14.444444444444446%" stop-color="#fbae3c" stop-opacity="1"></stop><stop offset="85.55555555555554%" stop-color="#fbae3c" stop-opacity="1"></stop></linearGradient></defs><defs><linearGradient id="grad1_1" x1="43.8%" y1="100%" x2="100%" y2="0%"><stop offset="14.444444444444446%" stop-color="#fbae3c" stop-opacity="1"></stop><stop offset="85.55555555555554%" stop-color="#ae4f6f" stop-opacity="1"></stop></linearGradient></defs><defs><linearGradient id="grad1_2" x1="43.8%" y1="100%" x2="100%" y2="0%"><stop offset="14.444444444444446%" stop-color="#23283e" stop-opacity="1"></stop><stop offset="85.55555555555554%" stop-color="#ae4f6f" stop-opacity="1"></stop></linearGradient></defs><defs><linearGradient id="grad2_0" x1="0%" y1="100%" x2="56.3%" y2="0%"><stop offset="14.444444444444446%" stop-color="#fbae3c" stop-opacity="1"></stop><stop offset="85.55555555555554%" stop-color="#fbae3c" stop-opacity="1"></stop></linearGradient></defs><defs><linearGradient id="grad2_1" x1="0%" y1="100%" x2="56.3%" y2="0%"><stop offset="14.444444444444446%" stop-color="#ae4f6f" stop-opacity="1"></stop><stop offset="85.55555555555554%" stop-color="#fbae3c" stop-opacity="1"></stop></linearGradient></defs><defs><linearGradient id="grad2_2" x1="0%" y1="100%" x2="56.3%" y2="0%"><stop offset="14.444444444444446%" stop-color="#ae4f6f" stop-opacity="1"></stop><stop offset="85.55555555555554%" stop-color="#23283e" stop-opacity="1"></stop></linearGradient></defs><g transform="translate(1920, 1080)"><path d="M-540 0C-526.3 -95.1 -512.6 -190.3 -467.7 -270C-422.7 -349.7 -346.6 -414 -263.5 -456.4C-180.4 -498.8 -90.2 -519.4 0 -540L0 0Z" fill="#623e65"></path><path d="M-360 0C-350.9 -63.4 -341.7 -126.9 -311.8 -180C-281.8 -233.1 -231.1 -276 -175.7 -304.3C-120.2 -332.5 -60.1 -346.3 0 -360L0 0Z" fill="#e9725c"></path><path d="M-180 0C-175.4 -31.7 -170.9 -63.4 -155.9 -90C-140.9 -116.6 -115.5 -138 -87.8 -152.1C-60.1 -166.3 -30.1 -173.1 0 -180L0 0Z" fill="#fbae3c"></path></g><g transform="translate(0, 0)"><path d="M540 0C511.6 85.6 483.1 171.3 441.7 255C400.2 338.7 345.8 420.5 270 467.7C194.2 514.8 97.1 527.4 0 540L0 0Z" fill="#623e65"></path><path d="M360 0C341 57.1 322.1 114.2 294.4 170C266.8 225.8 230.5 280.3 180 311.8C129.5 343.2 64.7 351.6 0 360L0 0Z" fill="#e9725c"></path><path d="M180 0C170.5 28.5 161 57.1 147.2 85C133.4 112.9 115.3 140.2 90 155.9C64.7 171.6 32.4 175.8 0 180L0 0Z" fill="#fbae3c"></path></g></svg>